<?xml version="1.0" encoding="UTF-8" standalone="no"?>
<!-- Created with Inkscape (http://www.inkscape.org/) -->

<svg
   width="72.317429mm"
   height="33.348282mm"
   viewBox="0 0 72.317429 33.348282"
   version="1.1"
   id="svg1"
   xml:space="preserve"
   xmlns:inkscape="http://www.inkscape.org/namespaces/inkscape"
   xmlns:sodipodi="http://sodipodi.sourceforge.net/DTD/sodipodi-0.dtd"
   xmlns="http://www.w3.org/2000/svg"
   xmlns:svg="http://www.w3.org/2000/svg"><sodipodi:namedview
     id="namedview1"
     pagecolor="#ffffff"
     bordercolor="#000000"
     borderopacity="0.25"
     inkscape:showpageshadow="2"
     inkscape:pageopacity="0.0"
     inkscape:pagecheckerboard="0"
     inkscape:deskcolor="#d1d1d1"
     inkscape:document-units="mm" /><defs
     id="defs1" /><g
     inkscape:label="Layer 1"
     inkscape:groupmode="layer"
     id="layer1"
     transform="translate(-67.507852,-101.95714)"><path
       style="fill:#000000;fill-opacity:1;stroke-width:0.264583"
       d="m 78.228004,111.89502 1.158933,-0.72434 2.144027,-1.07201 4.085241,-2.02813 4.664705,-1.99916 6.026454,-1.94122 4.345996,-1.01406 3.94038,-0.57947 3.18707,-0.26076 4.43291,-0.28973 3.07118,-0.029 3.62167,0.26076 2.14402,0.17383 1.53559,0.23179 1.53559,0.26076 1.3038,0.28973 1.76737,0.4346 1.7384,0.52152 2.31787,0.92715 2.54965,1.21688 1.99916,1.33277 1.15893,1.12997 1.68046,1.41969 0.57946,0.72433 0.34768,1.10099 0.17384,1.41969 0.0869,1.62251 -0.28973,1.56456 -0.98509,2.31787 -0.81126,1.10098 -3.12912,2.95528 -2.23094,2.02813 -1.97019,1.24586 -2.95528,1.94121 -5.15726,2.52068 -7.8228,-3.70859 -4.51984,-2.69452 -3.41885,-1.88326 -0.89817,-0.89818 -1.3038,1.18791 -6.258242,4.20114 -4.230108,2.43376 -5.852612,3.62166 -3.042201,1.7384 -1.129961,0.52152 -0.637413,0.0869 h -0.666387 l -0.69536,-0.0579 -0.898173,-0.058 -0.898173,-0.17384 -1.21688,-0.37665 -1.448667,-0.37666 -2.288892,-0.92715 -0.695362,-0.14486 -1.21688,-0.66639 -1.187905,-0.72433 -0.927148,-0.72434 -0.956119,-0.78228 -1.129961,-1.12995 -0.985094,-1.82532 -0.463572,-1.4197 v -3.85345 l 0.376653,-0.8692 0.724334,-1.15894 0.608439,-1.36174 1.390721,-1.53559 1.274826,-1.12996 3.100147,-2.28889 2.549654,-1.53559 z"
       id="path1" /></g></svg>
