<?xml version="1.0" standalone="no"?>
<!DOCTYPE svg PUBLIC "-//W3C//DTD SVG 20010904//EN"
 "http://www.w3.org/TR/2001/REC-SVG-20010904/DTD/svg10.dtd">
<svg version="1.0" xmlns="http://www.w3.org/2000/svg"
 width="2664.000000pt" height="1500.000000pt" viewBox="0 0 2664.000000 1500.000000"
 preserveAspectRatio="xMidYMid meet">
<metadata>
Created by potrace 1.16, written by Peter Selinger 2001-2019
</metadata>
<g transform="translate(0.000000,1500.000000) scale(0.100000,-0.100000)"
fill="#000000" stroke="none">
<path d="M12930 12247 c0 -20 -22 -27 -77 -27 -26 0 -43 -3 -40 -7 15 -14 -18
-33 -58 -33 -34 0 -44 -4 -48 -20 -4 -16 -14 -20 -46 -20 -31 0 -41 -4 -41
-16 0 -9 -9 -18 -20 -21 -11 -3 -20 -12 -20 -20 0 -8 -9 -17 -19 -20 -11 -3
-21 -13 -24 -24 -4 -16 -15 -19 -78 -19 -40 0 -69 -3 -66 -7 4 -3 2 -12 -4
-20 -8 -8 -35 -13 -81 -13 -44 0 -67 -4 -63 -10 10 -16 -41 -30 -111 -30 -39
0 -63 -4 -59 -9 11 -19 -35 -31 -118 -31 -96 0 -96 0 -98 -78 -1 -26 -4 -37
-6 -24 -4 21 -9 22 -99 22 -74 0 -94 -3 -94 -14 0 -21 -23 -26 -118 -26 l-87
0 3 80 4 80 -101 0 -101 0 0 -80 0 -80 -41 0 c-45 0 -83 16 -74 31 4 5 0 9 -7
9 -13 0 -29 -24 -44 -63 -4 -10 -13 -16 -21 -13 -11 5 -13 -6 -11 -57 l3 -62
98 -3 97 -3 0 -115 c0 -107 1 -116 20 -121 17 -5 20 -14 20 -60 0 -46 3 -56
20 -60 11 -3 20 -14 20 -24 0 -11 6 -22 14 -25 8 -3 18 -19 21 -36 4 -18 15
-32 26 -35 10 -3 21 -14 24 -24 4 -10 12 -19 20 -19 8 0 17 -9 20 -20 3 -11
15 -20 26 -20 12 0 19 -7 19 -20 0 -16 7 -20 35 -20 24 0 37 -6 45 -20 12 -23
37 -25 75 -8 34 15 32 43 -5 58 -16 7 -32 21 -35 31 -4 10 -15 19 -26 19 -11
0 -19 7 -19 16 0 9 -9 18 -20 21 -11 3 -20 14 -20 24 0 11 -6 19 -14 19 -17 0
-26 22 -26 66 0 23 -6 38 -20 46 -18 12 -20 24 -20 155 0 120 -2 143 -15 143
-8 0 -15 7 -15 15 0 8 9 15 20 15 11 0 19 5 17 12 -3 16 54 26 126 23 46 -3
63 -8 65 -19 3 -13 -8 -16 -60 -16 -51 0 -67 -4 -81 -20 -21 -25 -22 -36 -3
-43 8 -3 18 -26 21 -51 8 -50 13 -53 86 -48 34 3 49 8 49 18 0 8 7 14 15 14
12 0 15 -28 17 -172 l3 -173 31 -3 c25 -2 33 1 37 17 3 13 13 21 26 21 18 0
21 6 21 38 0 26 7 45 20 57 18 16 20 31 20 142 0 110 2 123 18 123 15 0 17
-17 21 -192 3 -175 5 -194 22 -206 13 -9 19 -25 19 -48 0 -45 16 -74 40 -74
24 0 40 29 40 74 0 22 7 39 18 48 17 11 20 33 25 173 3 88 11 184 18 214 6 30
9 90 7 133 -3 43 -1 78 3 78 5 0 10 -80 11 -177 3 -176 3 -178 26 -181 14 -2
22 -10 22 -23 0 -16 7 -19 43 -19 47 0 73 -12 63 -29 -5 -8 23 -11 98 -11 84
0 106 3 106 14 0 18 22 26 75 26 33 0 44 4 48 19 3 13 16 20 41 23 32 4 36 2
36 -19 0 -14 -6 -23 -15 -23 -8 0 -15 -5 -15 -11 0 -6 -12 -24 -27 -40 -16
-16 -29 -34 -29 -39 -1 -6 -2 -14 -3 -20 0 -5 -10 -10 -20 -10 -10 0 -21 -7
-25 -15 -3 -8 -17 -20 -31 -25 -14 -5 -25 -16 -25 -24 0 -8 -10 -16 -22 -18
-20 -3 -23 -9 -23 -52 0 -37 5 -52 18 -60 16 -9 22 -7 34 12 11 15 25 22 48
22 24 0 34 5 38 20 3 11 14 20 25 20 11 0 22 9 25 20 4 14 14 20 33 20 15 0
24 3 21 7 -11 11 14 33 38 33 14 0 25 7 28 20 3 12 14 20 26 20 14 0 21 6 21
20 0 11 6 20 14 20 7 0 16 9 19 20 3 11 12 20 21 20 9 0 16 7 16 15 0 9 11 20
25 25 20 8 25 16 25 44 0 25 5 35 20 39 17 4 20 14 20 61 0 56 13 74 25 36 4
-14 15 -20 34 -20 29 0 56 -21 44 -34 -4 -4 70 -6 164 -4 l172 3 3 -34 c4 -46
34 -65 55 -33 9 12 26 22 39 22 17 0 24 6 24 19 0 10 9 21 19 24 13 3 22 17
27 41 4 26 11 36 20 32 11 -4 14 8 14 53 0 32 3 79 6 105 l7 47 76 -3 c60 -2
76 -6 76 -18 0 -8 7 -20 15 -27 11 -9 16 -42 20 -140 l5 -128 34 0 c31 0 35 3
48 45 8 25 18 63 23 85 6 32 8 22 9 -52 0 -51 4 -93 9 -93 4 0 18 -16 31 -35
13 -19 32 -35 41 -35 29 0 50 -11 50 -26 0 -17 51 -19 68 -2 9 9 12 3 12 -30
0 -29 5 -45 15 -49 9 -3 18 -3 22 0 10 11 23 262 14 293 -7 24 -13 29 -36 27
-15 -1 -29 -4 -32 -6 -2 -3 3 -32 11 -65 9 -33 16 -75 15 -93 l-1 -34 -11 41
c-7 23 -19 49 -27 59 -8 10 -14 39 -15 68 0 57 9 64 69 53 23 -4 35 -15 45
-38 8 -18 21 -37 28 -43 11 -8 10 -22 -1 -80 -11 -57 -14 -65 -18 -40 -3 17
-5 -46 -4 -140 l1 -170 32 -3 c24 -2 33 1 37 16 4 11 16 22 26 25 18 4 20 14
20 76 0 60 3 72 20 81 17 9 20 21 20 75 0 64 0 65 20 48 11 -10 20 -23 20 -29
0 -6 9 -14 20 -17 11 -3 20 -12 20 -21 0 -9 8 -16 20 -16 13 0 20 -7 20 -20 0
-14 7 -20 21 -20 12 0 23 -8 26 -20 4 -14 14 -20 35 -20 21 0 31 -6 35 -20 4
-14 14 -20 33 -20 28 0 55 -21 43 -33 -3 -4 8 -7 26 -7 38 0 74 -17 66 -31 -7
-10 64 -13 89 -3 11 4 16 19 16 44 0 59 -8 70 -47 70 -26 0 -36 5 -40 20 -4
15 -14 20 -39 20 -27 0 -34 4 -34 20 0 16 -7 20 -31 20 -22 0 -32 5 -36 20 -3
11 -12 20 -19 20 -8 0 -18 8 -21 18 -4 9 -15 28 -25 41 -10 13 -18 35 -18 48
0 14 -4 21 -10 18 -13 -8 -30 37 -30 81 0 24 5 34 15 34 8 0 15 9 15 20 0 13
7 20 19 20 10 0 21 9 24 20 4 16 14 20 52 20 26 0 44 4 40 9 -13 22 39 32 152
29 103 -3 118 -5 121 -20 3 -15 -5 -18 -52 -18 -44 0 -56 -3 -56 -15 0 -9 -11
-20 -25 -25 -25 -9 -26 -13 -23 -82 l3 -73 78 -3 77 -3 0 -50 c0 -37 -5 -53
-20 -66 -15 -13 -20 -30 -20 -69 0 -43 -3 -53 -20 -57 -23 -6 -28 -58 -7 -75
17 -14 137 -3 137 13 0 7 11 21 25 31 15 11 25 29 25 44 0 14 9 31 20 37 17
11 20 26 22 120 l3 108 103 3 c82 2 102 6 102 17 0 8 7 15 16 15 13 0 15 -21
12 -171 -3 -150 -5 -172 -20 -180 -12 -7 -18 -22 -18 -44 0 -25 -5 -35 -15
-35 -9 0 -20 -11 -24 -24 -5 -13 -17 -26 -25 -29 -22 -9 -20 -44 3 -57 11 -5
36 -10 55 -10 29 0 36 4 36 20 0 15 7 20 25 20 18 0 25 5 25 20 0 11 6 20 14
20 8 0 18 9 21 20 3 11 12 20 20 20 15 0 25 22 25 55 0 14 7 25 20 28 17 4 20
14 20 60 0 47 3 57 20 62 19 6 20 15 20 207 0 172 -2 202 -16 212 -12 9 -17
36 -21 99 -3 49 -10 84 -15 81 -5 -3 -12 3 -15 15 -5 20 -12 21 -132 21 -89
-1 -131 -5 -143 -14 -22 -16 -23 -42 -3 -50 8 -3 20 -17 25 -31 5 -14 16 -25
25 -25 10 0 15 -10 15 -34 0 -22 7 -38 19 -47 11 -8 22 -29 26 -46 l7 -33 -97
0 c-57 0 -94 -4 -90 -9 3 -5 1 -12 -4 -15 -8 -5 -21 24 -21 51 0 8 21 13 58
15 l57 3 3 58 3 57 -226 0 c-217 0 -274 7 -260 31 4 5 -33 9 -92 9 -98 0 -131
8 -119 28 4 8 -18 12 -66 14 l-73 3 -3 53 c-3 46 -6 54 -28 62 -13 5 -24 16
-24 24 0 7 -9 16 -20 19 -11 3 -20 12 -20 21 0 9 -8 16 -19 16 -30 0 -51 11
-51 26 0 8 -10 14 -25 14 -22 0 -30 9 -26 33 0 4 -19 7 -43 7 -41 0 -74 19
-59 33 3 4 -17 7 -45 7 -60 0 -82 7 -82 27 0 11 -13 13 -57 11 l-58 -3 -3 -59
c-4 -67 9 -87 73 -118 l40 -19 -35 5 c-19 4 -40 13 -46 21 -8 11 -31 15 -82
15 -75 0 -127 13 -117 30 4 7 -93 10 -284 10 -228 0 -290 -3 -288 -12 1 -8
-11 -14 -28 -16 -27 -3 -28 -2 -12 10 15 11 18 25 15 73 l-3 60 -62 3 c-50 2
-63 0 -63 -11z m-40 -316 c0 -5 -16 -21 -35 -35 -34 -26 -35 -30 -35 -92 0
-58 -2 -64 -21 -64 -12 0 -23 8 -26 20 -3 11 -12 20 -19 20 -8 0 -14 10 -14
24 0 35 -10 56 -26 56 -10 0 -14 12 -14 38 l0 37 95 3 c53 1 95 -1 95 -7z
m530 -290 c0 -129 -1 -139 -19 -144 -15 -3 -21 1 -23 17 -3 19 -10 21 -80 24
-65 2 -79 6 -88 22 -7 13 -21 20 -41 20 -22 0 -32 5 -36 20 -3 11 -12 20 -19
20 -10 0 -14 15 -14 58 0 31 -3 67 -6 80 l-6 22 166 0 166 0 0 -139z m-890 85
c0 -23 25 -66 38 -66 8 0 16 -9 19 -19 3 -11 13 -21 24 -24 10 -3 19 -12 19
-21 0 -9 7 -16 15 -16 8 0 15 -9 15 -20 0 -11 6 -20 14 -20 9 0 17 -15 21 -40
8 -45 0 -76 -20 -84 -11 -4 -15 3 -15 27 0 18 -5 38 -12 45 -17 17 -58 15 -58
-2 0 -20 -23 -26 -106 -26 -45 0 -73 -4 -69 -9 9 -15 -34 -33 -61 -27 -13 4
-24 13 -24 20 0 8 -10 16 -21 19 -15 4 -20 11 -15 23 4 9 0 24 -8 33 -7 9 -17
35 -21 59 l-7 42 42 0 c25 0 39 4 35 10 -11 17 40 34 64 21 12 -7 19 -16 16
-22 -4 -5 9 -9 29 -9 43 0 56 20 56 84 0 36 3 44 15 40 8 -4 15 -12 15 -18z"/>
<path d="M13078 10927 c-15 -12 -17 -44 -20 -288 -2 -151 1 -280 5 -286 6 -9
40 -13 112 -13 l104 0 16 30 c8 16 15 38 15 49 0 11 3 27 7 37 6 16 7 16 14
-2 5 -13 8 -7 8 23 1 30 -4 45 -16 52 -16 8 -19 32 -23 198 -3 103 -9 194 -13
201 -11 17 -186 16 -209 -1z"/>
<path d="M14543 10848 c1 -7 -13 -17 -31 -23 -38 -13 -52 -30 -52 -62 0 -12
-7 -23 -17 -25 -9 -2 -22 -19 -28 -38 -7 -19 -18 -34 -24 -32 -7 1 -11 -19
-11 -57 0 -47 -4 -63 -19 -73 -14 -10 -19 -31 -25 -103 -5 -80 -4 -93 13 -112
12 -14 30 -23 49 -23 29 0 58 -21 45 -33 -3 -4 3 -7 15 -7 13 0 22 6 22 15 0
9 14 17 39 21 33 5 43 12 57 43 9 20 23 40 30 44 8 4 14 22 14 40 0 21 7 36
20 45 16 9 20 23 20 61 0 41 4 51 20 56 18 6 20 15 20 80 0 41 5 77 10 80 6 3
10 20 10 36 0 25 -6 33 -30 42 -16 6 -30 17 -30 24 0 9 -18 13 -60 13 -41 0
-59 -4 -57 -12z"/>
<path d="M11638 10519 c-10 -10 -18 -28 -18 -39 0 -11 -7 -20 -15 -20 -8 0
-15 -7 -15 -15 0 -9 -11 -20 -25 -25 -24 -9 -25 -14 -25 -84 0 -63 3 -74 19
-79 12 -3 21 -17 25 -41 4 -23 13 -36 22 -36 9 0 18 -9 21 -20 3 -11 12 -20
19 -20 8 0 14 -10 14 -25 0 -14 11 -37 25 -51 14 -14 25 -29 25 -34 0 -6 7
-10 15 -10 8 0 15 -9 15 -20 0 -14 7 -20 21 -20 12 0 23 -8 26 -20 5 -17 14
-20 68 -20 54 0 63 3 68 20 4 15 14 20 37 20 17 0 29 4 25 10 -3 5 3 15 15 22
17 11 20 23 20 75 0 51 -3 61 -15 57 -15 -6 -19 0 -29 49 -4 15 -13 27 -21 27
-9 0 -15 10 -15 25 0 14 -9 34 -20 45 -11 11 -20 24 -20 30 0 5 -9 14 -20 20
-13 7 -20 21 -20 41 0 22 -6 32 -19 36 -14 4 -21 15 -23 42 -2 29 -7 37 -27
39 -13 2 -26 12 -28 23 -7 27 -100 26 -125 -2z"/>
<path d="M15877 10320 c-3 -11 -13 -20 -25 -20 -11 0 -22 -9 -25 -20 -3 -14
-14 -20 -31 -20 -16 0 -26 -6 -26 -14 0 -15 -21 -26 -51 -26 -12 0 -19 -7 -19
-20 0 -15 -7 -20 -25 -20 -16 0 -25 -6 -25 -15 0 -9 -12 -18 -30 -21 -16 -4
-30 -13 -30 -20 0 -8 -11 -19 -25 -24 -22 -8 -25 -15 -25 -61 0 -42 3 -52 19
-56 11 -3 21 -13 24 -24 3 -11 14 -19 25 -19 21 0 46 -23 35 -33 -3 -4 28 -7
70 -7 62 0 77 3 77 15 0 9 12 18 29 21 17 4 31 14 34 25 3 11 14 19 26 19 14
0 21 6 21 20 0 13 7 20 19 20 10 0 21 9 24 20 3 12 14 20 26 20 12 0 21 6 21
15 0 8 14 18 33 23 l32 8 3 76 c2 65 0 77 -14 80 -9 2 -22 19 -28 38 -11 34
-12 35 -72 38 -55 3 -62 1 -67 -18z"/>
<path d="M13370 10006 c0 -19 -32 -26 -121 -26 -68 0 -77 -2 -82 -20 -4 -18
-14 -20 -73 -20 -37 0 -64 -3 -61 -7 17 -17 -19 -33 -74 -33 -44 0 -59 -4 -59
-14 0 -19 -22 -26 -85 -26 -44 0 -53 -3 -58 -20 -4 -17 -14 -20 -57 -20 -30 0
-49 -4 -45 -9 10 -17 -31 -31 -89 -31 -41 0 -56 -4 -56 -14 0 -18 -22 -26 -75
-26 -34 0 -44 -4 -48 -20 -4 -16 -14 -20 -50 -20 -36 0 -46 -4 -50 -20 -4 -16
-14 -20 -50 -20 -36 0 -46 -4 -50 -20 -4 -16 -14 -20 -48 -20 -23 0 -39 -3
-36 -7 14 -13 -17 -33 -51 -33 -19 0 -32 -3 -29 -7 12 -12 -15 -33 -43 -33
-19 0 -29 -6 -33 -20 -4 -14 -14 -20 -35 -20 -21 0 -31 -6 -35 -20 -4 -15 -14
-20 -38 -20 -18 0 -29 -3 -26 -7 11 -11 -14 -33 -38 -33 -14 0 -25 -7 -28 -20
-4 -14 -14 -20 -35 -20 -21 0 -31 -6 -35 -20 -3 -12 -14 -20 -26 -20 -14 0
-21 -6 -21 -20 0 -14 -7 -20 -24 -20 -15 0 -26 -7 -29 -20 -3 -13 -14 -20 -30
-20 -16 0 -26 -7 -30 -20 -3 -12 -14 -20 -26 -20 -12 0 -20 -3 -20 -7 4 -22
-3 -33 -20 -33 -10 0 -21 -9 -24 -20 -3 -11 -12 -20 -20 -20 -8 0 -17 -9 -20
-20 -3 -11 -12 -20 -21 -20 -9 0 -16 -7 -16 -15 0 -9 -7 -18 -15 -21 -8 -4
-15 -10 -15 -15 0 -4 -12 -21 -26 -36 -14 -15 -30 -38 -35 -50 -5 -13 -15 -23
-24 -23 -8 0 -15 -9 -15 -20 0 -11 -6 -20 -14 -20 -7 0 -16 -9 -19 -20 -3 -11
-12 -20 -20 -20 -8 0 -17 -9 -20 -20 -3 -11 -12 -20 -21 -20 -9 0 -18 -13 -22
-35 -3 -20 -15 -40 -25 -46 -11 -5 -19 -16 -19 -24 0 -8 -8 -23 -18 -33 -31
-31 -41 -141 -27 -304 6 -64 11 -85 21 -81 8 3 15 -10 19 -41 5 -32 11 -43 21
-39 8 3 14 -1 14 -9 0 -25 25 -67 42 -72 10 -2 18 -11 18 -20 0 -9 8 -16 20
-16 18 0 25 -10 21 -32 0 -5 8 -8 20 -8 12 0 23 -8 26 -20 4 -14 14 -20 34
-20 26 0 34 -9 30 -32 0 -5 17 -8 40 -8 32 0 42 -4 46 -20 4 -16 14 -20 48
-20 40 0 73 -19 58 -33 -3 -4 28 -7 70 -7 45 0 79 -5 83 -11 10 -16 -15 -29
-57 -29 -28 0 -38 -5 -42 -20 -4 -16 -14 -20 -45 -20 -31 0 -41 -4 -45 -20 -4
-17 -14 -20 -55 -20 -41 0 -51 -3 -55 -20 -4 -16 -14 -20 -51 -20 -33 0 -46
-4 -46 -14 0 -18 -22 -26 -72 -26 -23 0 -38 -3 -35 -7 15 -14 -18 -33 -59 -33
-31 0 -44 -4 -44 -14 0 -18 -22 -26 -72 -26 -23 0 -38 -3 -35 -7 13 -13 -16
-33 -48 -33 -24 0 -34 -5 -38 -20 -4 -15 -14 -20 -41 -20 -24 0 -36 -5 -36
-14 0 -18 -22 -26 -70 -26 -29 0 -39 -4 -43 -20 -4 -17 -14 -20 -57 -20 -30 0
-49 -4 -45 -9 8 -15 -29 -31 -69 -31 -24 0 -36 -5 -36 -14 0 -18 -22 -26 -70
-26 -29 0 -39 -4 -43 -20 -5 -18 -14 -20 -78 -20 -40 0 -69 -3 -66 -7 15 -14
-18 -33 -58 -33 -34 0 -44 -4 -48 -20 -4 -17 -14 -20 -70 -20 -56 0 -65 -3
-70 -20 -4 -16 -14 -20 -51 -20 -33 0 -46 -4 -46 -14 0 -17 -22 -26 -66 -26
-22 0 -34 -5 -34 -14 0 -19 -22 -26 -86 -26 -32 0 -53 -4 -49 -9 9 -15 -29
-31 -74 -31 -28 0 -41 -4 -41 -14 0 -19 -22 -26 -86 -26 -32 0 -53 -4 -49 -9
10 -17 -31 -31 -86 -31 -29 0 -49 -3 -46 -7 4 -3 2 -12 -4 -20 -8 -9 -37 -13
-90 -13 -61 0 -79 -3 -79 -14 0 -20 -23 -26 -92 -26 -34 0 -58 -3 -55 -7 14
-14 -17 -33 -54 -33 -32 0 -39 -4 -39 -19 0 -10 -9 -21 -20 -24 -15 -4 -20
-14 -20 -37 0 -23 5 -33 20 -37 11 -3 20 -14 20 -24 0 -16 8 -19 50 -20 28 -1
55 -3 60 -4 6 -1 21 -3 35 -4 15 0 25 -7 25 -16 0 -12 16 -15 86 -15 84 0 130
-12 119 -31 -4 -5 26 -9 74 -9 88 0 111 -5 111 -26 0 -11 16 -14 66 -14 66 0
109 -13 99 -31 -4 -5 29 -9 83 -9 63 0 93 -4 101 -13 6 -8 8 -17 4 -20 -3 -4
28 -7 70 -7 84 0 107 -6 107 -26 0 -11 17 -14 69 -14 78 0 101 -6 101 -26 0
-10 15 -14 54 -14 64 0 86 -7 86 -26 0 -10 13 -14 46 -14 37 0 47 -4 51 -20 4
-16 14 -20 53 -20 45 0 79 -18 63 -33 -3 -4 14 -7 39 -7 43 0 76 -18 61 -33
-3 -4 17 -7 45 -7 60 0 82 -7 82 -26 0 -10 13 -14 44 -14 54 0 76 -8 76 -26 0
-10 14 -14 54 -14 50 0 86 -17 69 -33 -3 -4 14 -7 39 -7 43 0 76 -18 61 -33
-3 -4 11 -7 31 -7 29 0 39 -4 43 -20 4 -16 14 -20 43 -20 36 0 67 -20 53 -33
-3 -4 13 -7 36 -7 34 0 44 -4 48 -20 4 -15 14 -20 40 -20 26 0 36 -5 40 -20 4
-15 14 -20 40 -20 26 0 36 -5 40 -20 4 -15 14 -20 40 -20 26 0 36 -5 40 -20 4
-16 14 -20 45 -20 31 0 41 -4 45 -20 4 -16 14 -20 45 -20 31 0 41 -4 45 -20 4
-15 14 -20 40 -20 26 0 36 -5 40 -20 4 -15 14 -20 40 -20 26 0 36 -5 40 -20 4
-15 14 -20 40 -20 26 0 36 -5 40 -20 4 -15 14 -20 40 -20 26 0 36 -5 40 -20 4
-16 14 -20 45 -20 31 0 41 -4 45 -20 4 -17 14 -20 55 -20 41 0 51 -3 55 -20 4
-14 14 -20 33 -20 39 0 60 -9 60 -26 0 -9 12 -14 36 -14 27 0 37 -5 41 -20 4
-14 14 -20 34 -20 26 0 34 -9 30 -32 0 -5 17 -8 39 -8 33 0 40 -3 40 -20 0
-16 7 -20 36 -20 27 0 37 -5 41 -20 3 -11 14 -20 25 -20 11 0 22 -9 25 -20 4
-13 14 -20 30 -20 16 0 27 -7 30 -20 4 -13 14 -20 30 -20 15 0 27 -7 30 -18 2
-10 14 -22 26 -28 12 -5 21 -15 20 -22 -2 -8 12 -12 43 -12 37 0 47 -4 51 -20
4 -16 14 -20 45 -20 31 0 41 -4 45 -20 4 -16 14 -20 50 -20 36 0 46 -4 50 -20
4 -14 14 -20 35 -20 21 0 31 -6 35 -20 3 -11 14 -20 25 -20 11 0 22 -9 25 -20
4 -14 14 -20 35 -20 21 0 31 -6 35 -20 5 -18 14 -20 74 -20 52 0 69 3 69 14 0
15 21 26 51 26 12 0 19 7 19 20 0 14 7 20 24 20 15 0 26 7 29 20 3 11 14 20
25 20 11 0 22 9 25 20 3 14 14 20 31 20 17 0 26 5 26 16 0 9 9 18 20 21 11 3
20 14 20 24 0 15 7 19 40 19 33 0 40 3 40 20 0 15 7 20 29 20 20 0 30 6 34 20
3 13 14 20 30 20 16 0 26 7 30 20 4 15 14 20 41 20 29 0 36 4 36 20 0 16 7 20
34 20 25 0 35 5 39 20 4 16 14 20 43 20 20 0 34 3 31 7 -12 12 15 33 43 33 19
0 29 6 33 20 4 14 14 20 35 20 21 0 31 6 35 20 4 15 14 20 40 20 26 0 36 5 40
20 4 14 14 20 35 20 21 0 31 6 35 20 4 15 14 20 40 20 26 0 36 5 40 20 4 15
14 20 40 20 26 0 36 5 40 20 4 14 14 20 35 20 21 0 31 6 35 20 4 14 14 20 35
20 21 0 31 6 35 20 3 13 14 20 30 20 17 0 28 7 32 20 4 14 15 20 35 20 19 0
29 6 33 20 4 15 14 20 38 20 18 0 29 3 26 7 -11 11 14 33 38 33 14 0 25 7 28
20 4 16 14 20 48 20 23 0 39 3 36 7 -14 13 17 33 53 33 29 0 39 4 43 20 4 16
14 20 51 20 33 0 46 4 46 14 0 17 21 26 60 26 19 0 29 6 33 20 4 16 14 20 50
20 36 0 46 4 50 20 4 16 14 20 51 20 33 0 46 4 46 14 0 17 22 26 65 26 24 0
34 5 38 20 4 17 14 20 57 20 35 0 49 4 44 11 -10 17 16 29 62 29 33 0 43 4 47
20 4 16 14 20 50 20 36 0 46 4 50 20 4 17 14 20 56 20 37 0 51 4 51 14 0 18
22 26 70 26 29 0 39 4 43 20 4 16 14 20 53 20 26 0 44 3 41 7 -16 15 18 33 63
33 39 0 49 4 53 20 4 17 14 20 55 20 41 0 51 3 55 20 4 17 14 20 58 20 29 0
49 3 46 7 -14 13 17 33 53 33 29 0 39 4 43 20 4 17 14 20 55 20 41 0 51 3 55
20 4 17 14 20 55 20 41 0 51 3 55 20 4 17 14 20 70 20 56 0 65 3 70 20 4 17
14 20 70 20 56 0 65 3 70 20 5 18 14 20 86 20 63 0 81 3 81 14 0 20 23 26 106
26 57 0 74 3 74 14 0 19 22 26 87 26 31 0 53 3 50 7 -15 14 18 33 56 33 22 0
37 3 34 7 -11 11 14 33 39 33 34 0 54 26 54 71 0 33 -4 41 -25 49 -14 5 -25
16 -25 25 0 11 -11 15 -42 16 -65 0 -123 14 -121 27 2 9 -24 12 -90 13 -106 2
-153 10 -150 27 2 9 -24 12 -93 12 -87 0 -96 2 -101 20 -5 17 -14 20 -60 20
-57 0 -98 14 -88 31 4 5 -13 9 -39 9 -54 0 -76 8 -76 26 0 10 -15 14 -56 14
-58 0 -99 14 -89 31 4 5 -28 9 -79 9 -93 0 -116 5 -116 26 0 10 -14 14 -54 14
-50 0 -86 17 -69 33 3 4 -12 7 -35 7 -50 0 -72 8 -72 26 0 10 -14 14 -49 14
-46 0 -80 18 -64 33 3 4 -16 7 -44 7 -47 0 -82 18 -66 33 3 4 -16 7 -43 7 -53
0 -80 11 -70 29 5 8 -10 11 -49 11 -48 0 -58 3 -62 20 -4 16 -14 20 -43 20
-48 0 -70 8 -70 26 0 10 -14 14 -51 14 -42 0 -52 3 -56 20 -4 16 -14 20 -52
20 -51 0 -77 12 -67 29 5 7 -9 11 -44 11 -43 0 -53 3 -57 20 -4 16 -14 20 -48
20 -40 0 -73 19 -58 33 3 4 -16 7 -44 7 -47 0 -82 18 -66 33 3 4 -10 7 -30 7
-45 0 -67 8 -67 26 0 9 -11 14 -29 14 -39 0 -61 9 -61 26 0 10 -13 14 -41 14
-32 0 -42 4 -46 20 -4 16 -14 20 -43 20 -36 0 -67 20 -53 33 3 4 -8 7 -26 7
-24 0 -34 5 -38 20 -4 15 -14 20 -40 20 -26 0 -36 5 -40 20 -5 17 -14 20 -59
20 -30 0 -54 4 -54 8 0 16 25 32 51 32 18 0 28 6 32 20 4 14 14 20 33 20 15 0
24 3 21 7 -12 11 14 33 39 33 13 0 23 3 23 8 -4 22 4 32 25 32 15 0 26 7 29
20 4 15 14 20 36 20 17 0 30 3 30 8 -4 21 3 32 20 32 10 0 21 9 24 20 3 11 12
20 20 20 8 0 17 9 20 20 3 11 12 20 20 20 8 0 17 9 20 20 3 11 12 20 20 20 9
0 19 9 22 20 3 11 15 20 26 20 10 0 18 3 18 8 -4 22 3 32 21 32 13 0 20 7 20
20 0 13 7 20 20 20 11 0 19 3 19 8 -4 22 3 32 21 32 13 0 20 7 20 20 0 13 7
20 20 20 13 0 20 7 20 20 0 11 6 20 14 20 7 0 16 9 19 20 3 11 12 20 20 20 9
0 21 16 28 35 7 19 19 35 26 35 7 0 13 11 13 24 0 15 7 26 17 28 9 2 22 19 28
38 7 19 18 34 24 32 6 -1 11 7 11 18 0 32 22 73 32 58 8 -13 13 137 9 277 -2
66 -6 82 -22 94 -13 9 -19 25 -19 52 0 24 -4 38 -11 37 -6 -2 -17 12 -23 30
-6 19 -19 38 -29 43 -9 6 -17 16 -17 23 0 8 -7 16 -15 20 -8 3 -15 12 -15 20
0 8 -9 18 -20 21 -11 3 -20 13 -20 21 0 8 -9 14 -21 14 -12 0 -23 8 -26 20 -3
11 -14 20 -25 20 -11 0 -22 9 -25 20 -3 11 -13 20 -23 20 -29 0 -50 11 -50 26
0 9 -11 14 -31 14 -36 0 -72 17 -64 31 4 5 -18 9 -53 9 -56 0 -92 16 -75 33 3
4 -17 7 -45 7 -60 0 -82 7 -82 26 0 11 -17 14 -69 14 -45 0 -72 5 -80 13 -6 8
-8 17 -4 20 3 4 -28 7 -71 7 -77 0 -122 12 -111 31 4 5 -27 9 -77 10 -107 1
-174 11 -171 27 2 9 -103 12 -457 12 -385 0 -460 -2 -460 -14z m570 -346 c356
-32 639 -115 795 -234 95 -71 187 -161 201 -194 24 -59 29 -168 10 -241 -26
-102 -61 -155 -181 -269 -173 -165 -346 -284 -538 -371 l-95 -43 -198 96
c-108 53 -225 113 -258 134 -34 21 -108 64 -166 95 -58 31 -119 68 -134 82
l-28 26 -32 -26 c-108 -88 -191 -142 -456 -296 -96 -56 -211 -125 -255 -154
-234 -152 -300 -180 -399 -170 -85 8 -286 74 -387 126 -84 44 -179 123 -213
178 -41 65 -66 148 -66 217 0 238 193 431 676 673 478 239 806 335 1279 374
94 8 339 6 445 -3z m-540 -1425 c0 -10 10 -15 34 -15 44 0 66 -9 66 -26 0 -10
12 -14 40 -14 37 0 45 -7 41 -32 0 -5 17 -8 40 -8 32 0 42 -4 46 -20 4 -15 14
-20 40 -20 26 0 36 -5 40 -20 4 -16 14 -20 45 -20 31 0 41 -4 45 -20 4 -15 14
-20 40 -20 26 0 36 -5 40 -20 4 -14 14 -20 35 -20 21 0 31 -6 35 -19 3 -11 15
-21 27 -23 28 -4 27 -22 -1 -26 -17 -3 -23 -10 -23 -28 0 -22 -4 -24 -46 -24
-37 0 -47 4 -51 20 -4 16 -14 20 -50 20 -48 0 -87 15 -78 31 4 5 -20 9 -58 9
-61 0 -98 16 -80 33 3 4 -17 7 -46 7 -55 0 -96 14 -86 31 4 5 -26 9 -73 9 -54
0 -83 4 -91 13 -6 8 -8 17 -4 20 3 4 -35 7 -85 7 -100 0 -122 5 -122 27 0 13
-9 15 -45 10 l-46 -5 33 24 c17 13 39 24 49 24 9 0 19 9 22 20 4 14 14 20 35
20 21 0 31 6 35 20 4 17 14 20 61 20 31 0 55 3 55 8 -3 18 4 22 41 22 29 0 40
-4 40 -15z m1120 -488 c332 -145 453 -197 585 -246 55 -21 210 -84 344 -140
134 -56 323 -128 420 -160 169 -56 461 -189 488 -223 18 -23 23 -86 8 -102
-29 -28 -87 -58 -217 -111 -191 -77 -330 -136 -433 -185 -49 -23 -106 -48
-125 -55 -19 -7 -91 -37 -160 -67 -115 -50 -222 -91 -570 -215 -211 -76 -252
-93 -337 -139 l-82 -45 -83 11 c-46 5 -98 14 -117 20 -19 5 -88 16 -155 25
-356 45 -392 51 -584 97 -201 48 -451 160 -552 247 -30 26 -83 69 -118 95 -74
56 -108 104 -128 177 -18 71 -17 106 5 154 20 46 128 174 166 199 54 36 277
106 384 121 128 18 479 26 614 15 292 -26 717 -152 1064 -316 148 -69 153 -71
153 -43 0 37 -134 249 -212 334 -235 258 -463 425 -748 548 -8 4 -22 11 -30
16 -8 5 -28 14 -45 21 -29 11 -29 12 -10 26 11 7 25 17 30 22 34 27 99 49 133
45 20 -3 161 -59 312 -126z"/>
<path d="M10501 9686 c-5 -13 -16 -26 -24 -29 -10 -4 -16 -30 -20 -89 -8 -97
0 -158 19 -158 8 0 14 -7 14 -15 0 -10 10 -15 31 -15 22 0 32 -5 36 -20 4 -16
14 -20 43 -20 36 0 67 -20 53 -33 -3 -4 7 -7 24 -7 30 0 59 -21 46 -33 -3 -4
13 -7 36 -7 46 0 85 -16 76 -31 -4 -5 5 -9 19 -9 16 0 26 6 26 15 0 14 18 21
70 27 22 3 26 9 33 57 4 30 14 62 22 71 22 24 18 47 -10 66 -14 9 -25 23 -25
30 0 9 -12 14 -36 14 -27 0 -37 5 -41 20 -4 15 -14 20 -40 20 -26 0 -36 5 -40
20 -4 13 -14 20 -30 20 -16 0 -27 7 -30 20 -3 13 -14 20 -29 20 -17 0 -24 6
-24 20 0 14 -7 20 -21 20 -12 0 -23 8 -26 19 -5 19 -46 31 -111 31 -25 0 -35
-5 -41 -24z"/>
<path d="M16199 9371 c24 -15 -5 -23 -109 -28 -55 -3 -99 -9 -98 -12 2 -21 -5
-30 -24 -33 -22 -3 -23 -8 -26 -90 -3 -84 -2 -88 23 -104 14 -9 25 -23 25 -30
0 -11 32 -14 171 -14 105 0 168 4 164 9 -10 17 32 31 93 31 36 0 64 5 70 13
14 17 22 113 14 172 -6 45 -10 50 -38 56 -39 8 -56 18 -49 30 4 5 -42 9 -112
9 -70 0 -112 -4 -104 -9z"/>
<path d="M10430 8606 c0 -17 -52 -26 -163 -26 -53 0 -86 -4 -82 -9 7 -13 -27
-31 -59 -31 -14 0 -35 -9 -46 -20 -17 -17 -20 -33 -20 -125 0 -89 2 -104 15
-99 9 4 15 0 15 -9 0 -9 5 -28 12 -42 11 -24 15 -25 100 -25 68 0 88 3 88 14
0 21 23 26 121 26 58 0 88 4 84 10 -9 14 38 30 89 30 36 0 45 4 49 21 3 12 10
18 16 14 7 -4 11 14 11 55 0 53 -3 63 -20 67 -15 4 -20 14 -20 39 0 23 -6 37
-20 44 -11 6 -20 17 -20 24 0 7 -13 16 -30 20 -18 3 -30 12 -30 21 0 11 -11
15 -45 15 -31 0 -45 -4 -45 -14z"/>
<path d="M15547 8440 c-3 -12 -14 -20 -26 -20 -18 0 -21 -6 -21 -39 0 -22 -4
-43 -10 -46 -15 -9 -12 -48 6 -83 13 -28 21 -32 56 -32 31 0 41 -4 45 -20 4
-14 14 -20 35 -20 21 0 31 -6 35 -20 4 -15 14 -20 40 -20 26 0 36 -5 40 -20 4
-16 14 -20 43 -20 36 0 67 -20 53 -33 -3 -4 33 -7 80 -7 80 0 87 2 87 20 0 13
7 20 20 20 13 0 24 10 30 25 5 14 17 28 25 31 10 4 15 20 15 51 0 36 -4 46
-20 50 -11 3 -20 14 -20 24 0 15 -7 19 -36 19 -27 0 -37 5 -41 20 -4 16 -14
20 -45 20 -31 0 -41 4 -45 20 -4 16 -14 20 -45 20 -31 0 -41 4 -45 20 -4 16
-14 20 -47 20 -46 0 -72 12 -62 29 5 8 -15 11 -67 11 -66 0 -75 -2 -80 -20z"/>
<path d="M14065 5051 c9 -15 -29 -31 -74 -31 -28 0 -41 -4 -41 -14 0 -18 -22
-26 -75 -26 -34 0 -44 -4 -48 -20 -3 -11 -14 -20 -25 -20 -11 0 -22 -9 -25
-20 -4 -15 -14 -20 -41 -20 -20 0 -35 -3 -35 -7 4 -24 -4 -33 -26 -33 -16 0
-25 -6 -25 -15 0 -9 -12 -18 -30 -21 -21 -5 -30 -12 -30 -25 0 -15 -7 -19 -32
-19 -17 0 -28 -3 -25 -7 13 -12 -15 -33 -44 -33 -18 0 -29 -5 -29 -14 0 -20
-23 -26 -95 -26 -59 0 -96 16 -78 33 3 4 -10 7 -30 7 -30 0 -37 4 -37 20 0 13
-7 20 -20 20 -13 0 -20 7 -20 20 0 14 -7 20 -22 20 -30 0 -52 15 -44 29 5 7
-4 11 -24 11 -23 0 -33 5 -37 20 -4 14 -14 20 -35 20 -35 0 -71 17 -63 31 4 5
-15 9 -45 9 -42 0 -53 4 -57 18 -3 13 -19 22 -51 28 -28 6 -46 14 -45 22 2 9
-55 12 -252 12 -211 0 -255 -2 -255 -14 0 -17 -22 -26 -66 -26 -22 0 -34 -5
-34 -14 0 -19 -22 -26 -85 -26 -44 0 -53 -3 -58 -20 -4 -16 -14 -20 -48 -20
-23 0 -39 -3 -36 -7 14 -13 -17 -33 -51 -33 -19 0 -32 -3 -29 -7 14 -13 -17
-33 -53 -33 -29 0 -39 -4 -43 -20 -4 -15 -14 -20 -41 -20 -24 0 -36 -5 -36
-14 0 -17 -21 -26 -60 -26 -19 0 -29 -6 -33 -20 -4 -16 -14 -20 -43 -20 -20 0
-34 -3 -31 -7 12 -12 -15 -33 -43 -33 -19 0 -29 -6 -33 -20 -4 -15 -14 -20
-40 -20 -26 0 -36 -5 -40 -20 -4 -15 -14 -20 -40 -20 -26 0 -36 -5 -40 -20 -4
-15 -14 -20 -40 -20 -26 0 -36 -5 -40 -20 -4 -14 -14 -20 -35 -20 -21 0 -31
-6 -35 -20 -4 -14 -14 -20 -35 -20 -21 0 -31 -6 -35 -20 -4 -15 -14 -20 -36
-20 -20 0 -31 -5 -31 -14 0 -15 -21 -26 -50 -26 -10 0 -20 -9 -23 -20 -4 -15
-14 -20 -40 -20 -26 0 -36 -5 -40 -20 -4 -14 -14 -20 -35 -20 -21 0 -31 -6
-35 -20 -4 -15 -14 -20 -40 -20 -26 0 -36 -5 -40 -20 -3 -13 -14 -20 -30 -20
-16 0 -26 -7 -30 -20 -4 -15 -14 -20 -38 -20 -18 0 -29 -3 -26 -7 13 -12 -15
-33 -44 -33 -18 0 -29 -5 -29 -14 0 -16 -21 -26 -58 -26 -16 0 -32 -8 -40 -20
-7 -11 -23 -20 -36 -20 -15 0 -26 -7 -29 -20 -4 -17 -14 -20 -56 -20 -37 0
-51 -4 -51 -14 0 -15 -21 -26 -50 -26 -10 0 -20 -9 -23 -20 -3 -11 -12 -20
-21 -20 -9 0 -16 -8 -16 -19 0 -10 -9 -21 -20 -24 -16 -4 -20 -14 -20 -52 0
-25 4 -44 9 -41 4 3 17 -10 27 -29 10 -19 25 -35 32 -35 8 0 16 -9 19 -19 3
-11 17 -21 34 -25 17 -3 29 -12 29 -21 0 -11 11 -15 41 -15 32 0 42 -4 46 -20
4 -14 14 -20 33 -20 28 0 55 -21 43 -33 -3 -4 13 -7 36 -7 34 0 44 -4 48 -20
5 -17 14 -20 65 -20 51 0 61 -3 65 -20 4 -15 14 -20 40 -20 26 0 36 -5 40 -20
4 -16 14 -20 44 -20 32 0 39 -3 39 -20 0 -17 7 -20 39 -20 37 0 68 -19 54 -33
-3 -4 12 -7 34 -7 38 0 71 -19 56 -33 -3 -4 5 -7 19 -7 26 0 53 -22 41 -33 -3
-4 10 -7 30 -7 34 0 42 -7 38 -32 0 -5 10 -8 24 -8 14 0 30 -9 37 -20 8 -13
24 -20 44 -20 31 0 60 -21 47 -33 -3 -4 7 -7 24 -7 30 0 59 -21 46 -33 -3 -4
10 -7 30 -7 45 0 67 -8 67 -26 0 -8 10 -14 26 -14 17 0 28 -6 31 -19 3 -11 16
-22 29 -25 13 -4 24 -13 24 -21 0 -10 10 -15 31 -15 22 0 32 -5 36 -20 4 -15
14 -20 38 -20 43 0 65 -9 65 -26 0 -10 13 -14 41 -14 32 0 42 -4 46 -20 4 -14
14 -20 35 -20 21 0 31 -6 35 -20 3 -11 14 -20 25 -20 11 0 22 -9 25 -20 4 -15
14 -20 38 -20 32 0 61 -20 48 -33 -3 -4 10 -7 29 -7 34 0 65 -20 51 -33 -3 -4
27 -7 68 -7 86 0 160 -17 138 -31 -8 -5 70 -9 199 -9 175 0 212 2 212 14 0 19
22 26 80 26 39 0 49 4 53 20 4 16 14 20 48 20 23 0 39 3 36 7 -15 14 18 33 58
33 34 0 44 4 48 20 3 12 14 20 25 20 13 0 19 6 18 18 -1 15 10 17 77 20 69 3
77 5 77 22 0 15 7 20 25 20 15 0 25 6 25 14 0 20 23 26 95 26 72 0 95 -6 95
-26 0 -8 9 -14 20 -14 11 0 25 -9 32 -20 9 -14 24 -20 51 -20 30 0 40 -4 44
-20 4 -13 14 -20 30 -20 16 0 27 -7 30 -20 3 -13 14 -20 28 -20 24 0 49 -22
38 -33 -3 -4 15 -7 41 -7 49 0 90 -15 81 -29 -2 -5 28 -11 69 -13 80 -5 107
-15 85 -29 -8 -5 33 -9 101 -9 68 0 109 4 101 9 -28 18 17 26 181 29 153 4
167 6 171 23 4 15 14 19 50 19 36 0 46 4 50 20 4 16 14 20 45 20 31 0 41 4 45
20 4 14 14 20 35 20 21 0 31 6 35 20 4 17 14 20 58 20 29 0 49 3 46 7 -14 13
17 33 53 33 29 0 39 4 43 20 4 16 14 20 48 20 23 0 39 3 36 7 -12 12 15 33 43
33 19 0 29 6 33 20 4 15 14 20 40 20 26 0 36 5 40 20 4 15 14 20 36 20 20 0
31 5 31 14 0 17 22 26 61 26 18 0 29 5 29 14 0 17 22 26 62 26 17 0 28 3 25 7
-16 15 18 33 64 33 42 0 49 3 49 20 0 11 6 20 14 20 7 0 16 9 19 20 4 14 14
20 35 20 21 0 31 6 35 20 4 16 14 20 47 20 23 0 39 4 35 9 -8 14 28 31 64 31
20 0 31 5 31 14 0 17 22 26 65 26 24 0 34 5 38 20 4 16 14 20 53 20 26 0 44 3
41 7 -13 12 16 33 45 33 16 0 27 4 23 9 -8 15 29 31 69 31 24 0 36 5 36 14 0
17 22 26 61 26 18 0 29 5 29 14 0 17 21 26 60 26 19 0 29 6 33 20 3 12 14 20
26 20 12 0 20 3 20 8 -4 23 4 32 26 32 16 0 25 6 25 15 0 9 11 20 25 25 14 5
25 16 25 24 0 7 7 17 15 20 13 5 15 20 13 78 -3 67 -5 73 -25 76 -15 2 -23 10
-23 23 0 15 -7 19 -30 19 -22 0 -33 6 -40 23 -19 44 -36 57 -77 57 -38 0 -70
19 -56 33 3 4 -3 7 -15 7 -33 0 -75 22 -60 32 9 5 3 8 -14 8 -16 0 -37 9 -48
20 -15 15 -33 20 -69 20 -46 0 -80 18 -64 33 3 4 -5 7 -20 7 -17 0 -28 7 -32
20 -5 14 -15 20 -37 20 -21 0 -31 6 -35 20 -4 14 -14 20 -33 20 -28 0 -55 21
-43 33 3 4 -7 7 -24 7 -30 0 -59 21 -46 33 3 4 -12 7 -34 7 -38 0 -71 19 -56
33 3 4 -13 7 -36 7 -34 0 -44 4 -48 19 -3 11 -17 21 -34 25 -17 3 -29 12 -29
21 0 10 -10 15 -34 15 -33 0 -62 20 -49 33 3 4 -5 7 -20 7 -36 0 -57 10 -57
26 0 8 -10 14 -24 14 -25 0 -51 22 -39 33 3 4 -11 7 -31 7 -29 0 -39 4 -43 20
-4 15 -14 20 -38 20 -32 0 -61 20 -48 33 3 4 -6 7 -20 7 -16 0 -32 8 -39 20
-8 12 -24 20 -41 20 -20 0 -30 6 -34 20 -4 14 -14 20 -33 20 -28 0 -55 21 -43
33 3 4 -13 7 -36 7 -34 0 -44 4 -48 20 -4 13 -14 20 -30 20 -16 0 -27 7 -30
20 -3 13 -14 20 -28 20 -34 0 -55 10 -55 26 0 8 -10 14 -26 14 -32 0 -66 18
-59 31 4 5 -23 9 -65 9 -72 0 -116 13 -105 31 4 5 -18 9 -52 10 -104 2 -178
13 -175 27 1 9 -23 12 -94 12 -57 0 -93 -4 -89 -9z"/>
</g>
</svg>
