<?xml version="1.0" encoding="UTF-8" standalone="no"?>
<!-- Created with Inkscape (http://www.inkscape.org/) -->

<svg
   width="210mm"
   height="297mm"
   viewBox="0 0 210 297"
   version="1.1"
   id="svg1"
   xml:space="preserve"
   inkscape:export-filename="mason.svg"
   inkscape:export-xdpi="96"
   inkscape:export-ydpi="96"
   xmlns:inkscape="http://www.inkscape.org/namespaces/inkscape"
   xmlns:sodipodi="http://sodipodi.sourceforge.net/DTD/sodipodi-0.dtd"
   xmlns="http://www.w3.org/2000/svg"
   xmlns:svg="http://www.w3.org/2000/svg"><sodipodi:namedview
     id="namedview1"
     pagecolor="#ffffff"
     bordercolor="#000000"
     borderopacity="0.25"
     inkscape:showpageshadow="2"
     inkscape:pageopacity="0.0"
     inkscape:pagecheckerboard="0"
     inkscape:deskcolor="#d1d1d1"
     inkscape:document-units="mm" /><defs
     id="defs1" /><g
     inkscape:label="Layer 1"
     inkscape:groupmode="layer"
     id="layer1"><path
       style="display:inline;fill:#000000;stroke-width:0.264583"
       d="m 110.08331,176.643 c 0,0 0.63138,-0.0812 -0.39382,0.67636 -2.86561,2.11753 -9.50045,4.89922 -9.50045,4.89922 L 53.016201,162.58533 c 0,0 -12.435014,-4.0287 -18.64561,-6.59221 -0.559435,-0.23091 -3.319778,-0.63463 -3.252703,-1.20909 0.04955,-0.42438 2.635037,-1.00345 3.649795,-1.35641 2.388386,-0.83074 41.22556,-16.97829 41.22556,-16.97829 0,0 -0.220293,-0.12879 3.829572,-2.30949 2.024933,-1.09035 7.671945,-0.18315 13.006748,0.85112 5.334802,1.03427 10.357397,2.19561 10.357397,2.19561 0,0 1.66933,0.42473 2.80477,0.72739 1.99122,0.53077 3.81216,1.69765 3.2831,1.96218 -0.83074,0.41537 -20.194634,2.57558 -23.517599,4.02938 -3.322968,1.45379 -13.554248,4.27804 -15.683022,8.17214 -2.128776,3.8941 -1.194191,6.28249 2.492224,11.26693 3.686416,4.98445 37.516877,13.29841 37.516877,13.29841 z"
       id="path2"
       sodipodi:nodetypes="csccssscsscsssssc"
       inkscape:label="waveLeft" /><path
       style="display:inline;fill:#000000;stroke-width:0.264583"
       d="m 123.73733,171.13286 c 0,0 -19.27823,-2.20808 -24.203941,-4.41616 -4.925714,-2.20808 -10.106205,-5.18049 -12.059507,-9.00216 -1.9533,-3.82168 1.783447,-8.91725 10.191133,-10.70069 8.407685,-1.78345 25.776555,0.0202 36.379985,5.85213 10.60343,5.83189 -3.02341,-8.19085 -3.02341,-8.19085 0,0 -7.99967,-6.84657 -14.05347,-9.36899 -6.05381,-2.52241 -21.55182,-6.09338 -23.272834,-6.01333 -1.721017,0.08 0.08005,-1.84109 0.08005,-1.84109 0,0 3.922316,-2.60154 4.322551,-2.76163 0.400235,-0.16009 3.402003,-1.20071 6.003543,0.04 2.60153,1.24074 12.76753,6.56388 12.76753,6.56388 l 11.5268,5.28312 18.29079,7.48441 6.64392,2.64156 4.04239,1.24073 8.84522,4.20248 c 0,0 0.64038,0.12007 0.64038,0.20012 0,0.08 -0.44026,1.20071 -0.44026,1.20071 l -5.7634,2.7216 -12.20721,5.20307 c 0,0 -14.60862,6.08359 -16.16954,6.20366 -1.56092,0.12008 -7.36434,3.40201 -7.72456,3.48206 -0.36021,0.08 -0.81616,-0.0247 -0.81616,-0.0247 z"
       id="path3"
       inkscape:label="waveRight" /><path
       style="display:inline;fill:#000000;stroke-width:0.264583"
       d="m 76.783739,222.20693 c 0,0 -1.271093,-2.37639 -0.828971,-4.69751 0.442118,-2.32113 1.436886,-2.81851 2.707978,-3.97908 1.271093,-1.16056 6.023875,-0.22106 7.571293,0.49739 1.547416,0.71844 3.979071,1.32635 6.631786,8.67659 2.652716,7.35023 -3.979071,10.224 -4.642252,10.50033 -0.663178,0.27632 -3.260627,2.70798 -13.097779,0.66318 -9.837153,-2.0448 -22.050695,-11.05298 -24.261292,-11.77143 -2.210596,-0.71844 -8.123941,-4.31066 -8.123941,-4.31066 0,0 27.411391,-15.08732 28.793014,-15.63997 1.381622,-0.55265 7.184437,-2.15533 12.821457,-1.879 5.637019,0.27632 13.484635,4.47645 17.463698,10.27927 3.97907,5.80281 6.3002,13.31884 10.50033,15.80576 4.20014,2.48692 5.08437,2.15533 5.08437,2.15533 l 3.37116,-0.22106 c 0,0 3.37116,-0.66318 4.58699,-1.21583 1.21583,-0.55265 4.75278,-2.10006 6.02387,-4.75278 1.2711,-2.65271 2.87378,-6.18967 1.1053,-10.3898 -1.76847,-4.20013 -6.46599,-6.57652 -8.56606,-6.68705 -2.10006,-0.11053 -7.01864,-0.49739 -8.28973,4.25539 -1.2711,4.75279 3.09483,5.19491 3.37116,5.13964 0.27632,-0.0553 2.48692,-1.93427 2.9843,-2.32112 0.49739,-0.38686 1.54742,-0.0553 2.0448,0.66317 0.49739,0.71845 1.60269,2.26586 1.60269,4.53173 0,2.26586 -2.48693,3.81327 -3.37116,4.03433 -0.88424,0.22106 -5.52649,0.11053 -8.56606,-3.48169 -3.03957,-3.59221 -4.69752,-7.95814 -3.37116,-11.82668 1.32636,-3.86855 5.52649,-6.35547 10.72139,-5.96861 5.1949,0.38685 15.5847,4.64225 18.51374,6.07913 2.92904,1.43689 16.85579,9.72663 17.96109,10.5556 1.1053,0.82898 1.93427,1.32636 1.2711,1.71321 -0.66318,0.38686 -9.06345,4.08961 -9.06345,4.08961 l -17.96109,7.79235 -7.2397,3.09483 c 0,0 -6.63179,2.2106 -11.4951,0.11053 -4.86331,-2.10006 -6.85285,-4.64225 -9.4503,-7.95815 -2.59745,-3.31589 -8.897641,-12.76619 -9.616085,-13.48463 -0.718444,-0.71844 -8.068675,-5.13964 -10.002949,-5.47123 -1.93427,-0.33159 -3.536952,0 -3.979071,0.11053 -0.442119,0.11053 -4.808048,0.71845 -6.079141,2.04481 -1.271092,1.32635 -5.139634,7.84761 -4.365926,11.82668 0.773708,3.97908 6.465993,8.78712 10.168742,9.00818 3.702748,0.22106 6.521259,-0.66318 7.737086,-4.25539 1.215829,-3.59222 0.331589,-3.20537 -0.276323,-4.36593 -0.607915,-1.16056 -2.652715,-2.0448 -3.039571,-2.26586 -0.386855,-0.22106 -1.547418,1.32635 -2.100066,2.2106 -0.552649,0.88423 -0.994768,1.76847 -2.37639,1.54741 -1.381622,-0.22106 -1.989537,0.44212 -2.873777,-0.44212 z"
       id="path4"
       inkscape:label="redSwirl" /><path
       style="display:inline;fill:#000000;stroke-width:0.264583"
       d="m 78.605337,127.96874 c 0,0 -10.624884,0.28207 -15.044084,-7.61607 -4.419201,-7.89815 7.239966,-14.10383 7.710093,-14.38591 0.470128,-0.28207 11.753188,-7.710089 26.23312,-10.342804 14.479934,-2.632716 27.455454,0.09402 32.814904,4.043097 5.35946,3.949067 6.48776,6.205687 3.2909,12.223317 -3.19687,6.01764 -15.79629,11.65917 -15.79629,11.65917 0,0 -5.41787,-2.38681 -8.15786,-3.90754 -2.73998,-1.52072 -8.86076,-5.21294 -8.86076,-5.21294 0,0 -7.898145,6.29971 -22.190023,13.53968 z"
       id="path10"
       inkscape:label="yellowSun"
       sodipodi:nodetypes="csssssczcc" /><path
       style="display:inline;fill:#FF0000;stroke-width:0.264583"
       d="m 100.46224,193.2582 c 0,0 -3.957873,-2.67072 -4.303765,-3.18956 -0.345895,-0.51884 -5.188408,-1.72947 -5.188408,-1.72947 l -6.226088,-4.15073 -32.514018,-15.56522 -17.986475,-6.57198 c 0,0 -27.3256101,-5.88019 -28.5362384,-6.39903 -1.2106282,-0.51884 -0.4141589,-1.27046 0.860103,-1.56452 1.2742622,-0.29406 21.9877554,-6.52038 21.9877554,-6.52038 0,0 21.318537,-8.0189 23.665531,-8.89903 2.346995,-0.88012 13.788596,-5.37853 14.570927,-5.96528 0.782331,-0.58674 0.678251,-1.31055 -0.618302,-1.53072 -1.296556,-0.22017 -4.669893,0.13433 -7.976875,-2.13517 -3.306982,-2.26949 -6.419435,-5.18742 -5.673744,-11.50959 0.745694,-6.32217 13.861693,-16.71891 22.374421,-20.452563 8.512728,-3.733652 19.414992,-8.288708 32.856136,-9.035436 13.44115,-0.746731 24.9408,2.613557 32.18409,5.077767 7.24328,2.46421 8.43805,12.321052 7.09394,15.307972 -1.34412,2.98692 -7.09394,9.48348 -11.05161,13.06778 -3.95768,3.58431 -7.24329,5.22712 -8.66208,5.74983 -1.41879,0.52271 -0.45594,0.96307 0.17508,1.20999 0.63102,0.24692 9.10858,3.67635 9.10858,3.67635 l 17.5587,6.83144 15.22668,5.32248 17.14717,4.30737 c 0,0 6.80399,0.98767 7.48988,1.17972 0.68589,0.19205 2.74355,0.90537 0.24692,2.38689 -2.49663,1.48151 -12.81236,3.31969 -12.81236,3.31969 l -17.91138,6.29501 -25.24449,9.91043 -11.19238,6.31113 -16.02433,8.67779 -10.63736,6.66138 -0.26274,-11.49333 9.91977,-4.89616 13.72166,-5.64358 5.38328,-2.65593 9.0112,-3.1651 13.29339,-5.39927 c 0,0 11.24538,-4.65455 13.66574,-6.06953 2.42037,-1.41498 0.70749,-2.30865 -0.59578,-2.90444 -1.30327,-0.59578 -6.51637,-3.01614 -6.51637,-3.01614 l -7.52174,-2.53208 -11.76669,-4.84073 -12.80932,-5.43651 c 0,0 -11.28262,-5.51098 -14.29877,-7.18662 -3.01614,-1.67563 -7.11214,-3.50021 -8.6016,-4.05876 -1.48945,-0.55855 -2.19694,-0.59578 -3.6864,-0.0745 -1.489453,0.52131 -5.510982,3.01615 -6.144,3.57469 -0.633018,0.55854 -0.484074,1.07986 0.03723,1.41498 0.521311,0.33513 2.345893,0.11171 4.840729,0.55855 2.494831,0.44683 5.324801,1.04262 9.011201,2.30865 3.6864,1.26604 10.24,3.12786 13.88916,5.2131 3.64917,2.08523 8.75055,6.29294 11.46881,9.08567 2.71825,2.79273 4.72902,6.06953 5.36204,7.44727 0.63301,1.37775 -0.14895,1.00539 -0.67026,0.85644 -0.52131,-0.14894 -5.51098,-2.71825 -8.08029,-3.64916 -2.56931,-0.93091 -7.14939,-2.79273 -12.39971,-3.68641 -5.25033,-0.89367 -8.45266,-0.9309 -14.93179,-0.67025 -6.479126,0.26066 -10.500652,2.75549 -10.649599,2.8672 -0.148945,0.11171 -3.239564,3.2768 -3.649165,4.096 -0.409599,0.8192 -0.856435,3.35128 1.266036,6.18124 2.122474,2.82997 9.230876,6.41192 11.219691,7.18178 1.988807,0.76986 9.494977,2.4379 10.649777,2.63037 1.15479,0.19246 6.99293,0.76986 8.59681,1.02648 1.60388,0.25662 4.8276,0.82191 4.8276,0.82191 l -14.06236,5.79286 -11.742171,-3.89495 c 0,0 -7.726724,-1.65842 -10.553575,-2.48763 -2.826851,-0.82921 -6.784441,-2.86454 -9.912821,-4.40988 -3.12838,-1.54535 -4.108355,-1.28151 -7.57596,-6.29446 -3.467603,-5.01295 0.588587,-8.90703 2.745166,-10.83661 2.156579,-1.92956 6.639994,-4.48341 11.180162,-5.6752 4.540165,-1.1918 24.573649,-3.40513 25.311429,-3.57538 0.73777,-0.17026 -1.8339,-1.87668 -6.23007,-2.82308 -4.396167,-0.9464 -14.714965,-3.05289 -17.096225,-3.17501 -2.381261,-0.12212 -4.834871,-0.35457 -4.834871,-0.35457 l -2.662408,-5.43278 c 0,0 1.08444,-0.15251 2.845637,-1.18494 1.761193,-1.03242 10.202783,-6.25528 10.202783,-6.25528 l 6.437471,-3.82604 c 0,0 2.129163,-1.88302 2.681353,-2.26715 0.55218,-0.38413 0.64821,0.19206 0.84028,0.33611 0.19206,0.14405 0.57619,0.57619 0.84028,0.67223 0.26409,0.096 6.21808,3.45715 6.21808,3.45715 l 6.8663,3.5772 2.32877,1.10437 c 0,0 6.62622,-3.64922 7.17841,-3.8893 0.55218,-0.24008 4.34545,-3.19307 4.70557,-3.64922 0.36012,-0.45616 4.58553,-3.96133 4.96966,-5.76193 0.38413,-1.8006 1.05635,-4.82561 -0.2881,-7.15439 -1.34445,-2.32878 -6.24639,-5.745993 -12.35876,-7.042557 -6.11237,-1.296564 -11.29863,-2.037456 -19.70777,-1.222473 -8.409132,0.814983 -14.299233,2.667214 -21.448857,5.92715 -7.149621,3.25993 -13.595392,6.74213 -16.781235,11.33567 -3.185842,4.59353 -1.037251,8.77958 2.22268,11.63202 3.259931,2.85244 10.324269,4.48317 11.653554,4.29327 1.329286,-0.1899 0.599432,-0.0747 0.599432,-0.0747 l 2.656907,5.42445 -0.511001,0.24742 -2.955922,1.67502 c 0,0 -1.921349,0.98531 -6.749352,3.00519 -4.828002,2.01987 -26.568521,11.1841 -26.568521,11.1841 0,0 -8.05031,3.59528 -9.535319,4.06423 -1.485008,0.46895 -2.735542,0.54711 -3.282651,0.62527 -0.547108,0.0782 -0.696772,0.68649 0.316715,1.11031 1.013483,0.42382 6.652146,2.00854 6.652146,2.00854 l 8.089453,2.94832 16.515198,6.00119 14.914661,6.64961 22.050662,8.83671 z"
       id="path11"
       sodipodi:nodetypes="csccccsscssssssssssssccccssccccccccccccssccccsssssssssssssssssssscccssssssssccsccssccccssssssssssccccscscscccccc"
       inkscape:label="waveOutline" /><path
       style="display:inline;fill:#FF0000;stroke-width:0.264583"
       d="m 55.345251,230.12148 c 0,0 -12.33422,-6.02125 -14.961421,-7.10966 -2.627201,-1.08841 -5.9675,-2.13929 -7.055911,-3.86574 -1.088411,-1.72644 -0.337783,-2.13929 0.337783,-2.55214 0.675566,-0.41284 8.970015,-4.27858 10.43374,-5.1418 1.463728,-0.86322 15.012578,-8.78236 18.95338,-10.734 3.940799,-1.95163 12.685625,-5.92996 15.575547,-6.30528 2.889922,-0.37531 7.2811,-0.6005 11.034244,0.56297 3.753143,1.16348 9.645578,5.10428 10.621397,5.77985 0.97582,0.67556 0.86322,1.12594 2.32695,0.45038 1.46373,-0.67557 8.48211,-6.71813 12.68563,-7.3937 4.20352,-0.67556 9.87076,-0.30025 17.33952,3.75314 7.46876,4.0534 34.79165,18.69066 34.79165,18.69066 0,0 2.06423,0.97582 0.67556,2.88992 -1.38866,1.91411 -7.31863,4.01587 -10.47127,5.59219 -3.15264,1.57632 -22.40627,11.03424 -22.40627,11.03424 l -9.57052,4.01586 c 0,0 -3.86574,1.57633 -10.39621,1.12595 -6.53047,-0.45038 -12.94834,-5.70478 -13.32366,-6.04256 -0.37531,-0.33779 -1.23853,-0.26272 -2.364478,0.22518 -1.125942,0.48791 -9.683112,4.7665 -10.771524,5.10428 -1.088411,0.33779 -6.052751,1.79628 -12.156442,0.82524 -6.103691,-0.97104 -4.716489,-2.01144 -6.519852,-3.12121 -1.803363,-1.10976 -14.784696,-7.79878 -14.784696,-7.79878 l 2.555336,-4.07279 8.450822,4.38881 c 0,0 5.315847,2.66943 9.57313,3.54389 4.257281,0.87447 9.020834,1.17364 13.047993,-0.96651 4.027157,-2.14015 4.901626,-5.06271 4.165232,-9.52711 -0.736396,-4.46439 -4.23427,-7.96226 -5.131752,-8.81372 -0.89748,-0.85146 -4.487405,-1.51882 -6.903699,-1.65689 -2.416294,-0.13807 -4.326318,1.97906 -4.809577,3.52089 -0.483259,1.54182 -0.06904,4.55644 0.552296,5.89115 0.621332,1.33472 4.487405,0.069 4.648491,-0.069 0.161087,-0.13808 1.610863,-2.94558 2.485332,-3.1757 0.874469,-0.23013 3.935108,2.60039 4.280294,3.19871 0.345184,0.59832 -0.253137,2.39328 -0.943507,3.61294 -0.690369,1.21965 -2.508342,3.77402 -5.15476,4.02716 -2.646421,0.25313 -5.615011,-1.42677 -7.847206,-2.83052 -2.232197,-1.40375 -4.507534,-3.57654 -4.608988,-7.63464 -0.101452,-4.0581 3.043573,-8.97854 3.246479,-9.53653 0.202904,-0.55799 3.246478,-2.63777 6.137873,-2.99285 2.891396,-0.35508 3.24648,-1.47106 9.181447,1.47106 5.934969,2.94212 6.645137,4.61609 10.246698,9.53653 3.601558,4.92045 7.811838,12.02212 10.906138,13.84826 3.0943,1.82615 7.50748,4.71754 16.33385,1.26816 8.82636,-3.44939 32.87059,-14.40625 33.12422,-14.60915 0.25363,-0.20291 0.19428,-0.6694 -1.28075,-1.72299 -1.47503,-1.05359 -11.2383,-6.71957 -11.61291,-7.02394 -0.37461,-0.30437 -4.68263,-2.73934 -14.16495,-6.83664 -9.48232,-4.09729 -16.19214,-2.4305 -18.72199,-0.50969 -2.52986,1.92082 -3.65424,6.74629 -2.48301,10.58792 1.17123,3.84163 5.5282,7.54272 8.90134,8.386 3.37315,0.84329 5.94985,-0.93698 6.13725,-3.56054 0.18739,-2.62355 -1.12438,-5.05971 -2.43616,-5.76245 -1.31178,-0.70273 -2.34246,1.59288 -2.99835,1.78027 -0.65589,0.1874 -0.98383,1.21808 -3.09204,-0.0937 -2.10822,-1.31177 -1.82712,-5.80929 0.93698,-7.54271 2.7641,-1.73342 7.07423,-1.92082 11.71229,1.82711 4.63807,3.74794 4.63807,8.47971 2.34246,13.02408 -2.29561,4.54437 -5.76245,6.51203 -13.39886,7.44902 -7.63642,0.93698 -13.96106,-12.88353 -15.17914,-15.03859 -1.21808,-2.15506 -6.512035,-9.22929 -11.712296,-11.6186 -5.200258,-2.38931 -8.339156,-1.68657 -14.523246,-0.98383 -6.184093,0.70274 -8.760799,2.81095 -11.243805,4.16958 -2.483009,1.35862 -10.962711,6.37149 -13.024075,7.21477 -2.061363,0.84329 -9.135591,4.73177 -9.557234,5.05971 -0.421642,0.32795 -1.077531,0.51534 0.281096,1.21808 1.358625,0.70274 14.144914,7.47809 14.144914,7.47809 z"
       id="path12"
       sodipodi:nodetypes="cssssssssssscssccsssssscccssssssscsssssssssssssssssssssssssssssssssscc"
       inkscape:label="swirlOutline" /></g><g
     inkscape:groupmode="layer"
     id="layer3"
     inkscape:label="sunRays"
     style="display:inline"><path
       style="fill:#000000;stroke-width:0.264583"
       d="m 34.155218,124.65433 c 0,0 7.84977,-1.50017 8.373086,-1.7095 0.523317,-0.20933 0.453544,-0.76753 0.418656,-1.50018 -0.03489,-0.73265 -0.767535,-2.47704 -1.186188,-3.07013 -0.418656,-0.5931 -1.32574,-0.13955 -2.407264,-0.0349 -1.081524,0.10466 -5.442506,0.8722 -6.628693,1.08152 -1.186188,0.20933 -0.03489,3.52368 0.104663,4.01211 0.139552,0.48843 0.593093,1.29085 1.32574,1.22107 z"
       id="path13" /><path
       style="fill:#000000;stroke-width:0.264583"
       d="m 40.608289,99.169714 c 0,0 6.606133,3.730526 7.189026,3.847106 0.582895,0.11657 1.437806,-0.11658 2.098418,-0.85492 0.660614,-0.73833 0.738333,-1.78754 0.505177,-2.292713 -0.233159,-0.505174 -4.974032,-2.836751 -5.440347,-3.186488 -0.466315,-0.349737 -1.632103,-1.8264 -1.904119,-2.0207 -0.272018,-0.194296 -1.08807,-0.544033 -1.554384,-0.07772 -0.466315,0.466315 -0.272019,1.98184 -0.349737,2.292717 -0.07772,0.310875 -0.621755,1.86526 -0.544034,2.292716 z"
       id="path14" /><path
       style="fill:#000000;stroke-width:0.264583"
       d="m 67.077153,77.687285 c 0,0 4.860663,7.638185 4.916212,8.165915 0.05555,0.527727 -0.138875,1.055457 -0.611055,1.388761 -0.472178,0.333301 -1.472086,0.69438 -2.222016,0.527727 -0.749932,-0.16665 -0.999908,-0.222199 -1.80539,-1.416534 -0.805481,-1.194334 -3.638552,-4.638463 -3.72188,-5.443942 -0.08333,-0.805482 1.74984,-3.166377 1.999816,-3.277476 0.249978,-0.111101 0.805481,-0.444405 1.444313,0.05555 z"
       id="path15" /><path
       style="fill:#000000;stroke-width:0.264583"
       d="m 95.504898,78.474715 c 0,0 0.07028,-8.737635 0.140552,-9.018739 0.07027,-0.281101 0.281102,-0.468505 1.007288,-0.538781 0.726183,-0.07027 1.546068,-0.234252 2.037998,-0.07027 0.491932,0.163976 0.281104,0.632482 0.30453,1.194689 0.02341,0.562206 0.749609,8.362829 0.632481,8.784482 -0.117126,0.421656 -1.077563,0.890161 -1.569492,0.983863 -0.491932,0.0937 -1.077564,0.210828 -1.546069,0.04685 -0.468506,-0.163978 -0.70276,-0.327953 -1.007288,-1.38209 z"
       id="path16" /><path
       style="fill:#000000;stroke-width:0.264583"
       d="m 122.53575,79.386609 c 0,0 2.42104,-7.380258 2.96773,-8.083143 0.54668,-0.702881 2.57723,-1.171469 3.6706,-0.468587 1.09337,0.702881 -2.46009,8.942221 -2.92867,9.410808 -0.46859,0.468588 -0.54669,0.546688 -1.64006,0.507638 -1.09337,-0.03905 -1.64006,-0.429538 -2.0696,-1.366716 z"
       id="path17" /><path
       style="fill:#000000;stroke-width:0.264583"
       d="m 148.66328,85.937324 c 0,0 5.47125,-4.697539 7.07394,-4.642273 1.60269,0.05526 1.98955,1.768483 2.10008,2.321137 0.11053,0.552651 -4.80807,5.194924 -6.13444,5.415983 -1.32636,0.221063 -2.65273,-0.939506 -3.09485,-1.381627 -0.44212,-0.442122 -0.33159,-1.160569 0.0553,-1.71322 z"
       id="path18" /><path
       style="fill:#000000;stroke-width:0.264583"
       d="m 158.38995,102.07475 c 0,0 6.46602,-0.66318 7.4608,-0.22106 0.99477,0.44212 1.71321,1.87901 1.43689,2.76326 -0.27633,0.88424 -1.2711,1.16057 -2.5422,1.49216 -1.2711,0.33159 -5.58178,0.66318 -6.68708,0.49738 -1.10531,-0.16579 -1.38163,-1.16057 -1.32637,-2.10007 0.0553,-0.93951 0.38686,-2.04481 1.65796,-2.43167 z"
       id="path19" /><path
       style="fill:#000000;stroke-width:0.264583"
       d="m 148.99487,120.92017 c 0,0 8.51083,3.20538 8.78716,3.59223 0.27633,0.38686 0.66318,1.71322 0.11053,2.32114 -0.55265,0.60792 -1.21583,1.16057 -2.65273,1.05004 -1.43689,-0.11053 -7.62659,-3.20538 -8.12397,-3.8133 -0.49739,-0.60791 -0.38686,-1.21583 0.11053,-1.87901 0.49738,-0.66318 1.16056,-1.21583 1.76848,-1.2711 z"
       id="path20" /></g><g
     inkscape:groupmode="layer"
     id="layer2"
     inkscape:label="theSearch"
     style="display:inline"><path
       style="fill:#000000;stroke-width:0.264583"
       d="m 57.275658,46.78074 h 3.134587 c 0,0 -0.853085,3.789281 -0.555498,4.364617 0.297588,0.575334 0,0 0,0 l 4.880436,-0.753888 0.07936,1.606971 -4.860594,0.138875 c 0,0 -0.555498,4.384455 -0.01984,6.269175 0.53566,1.884719 1.031637,3.392495 2.221987,4.999468 1.19035,1.606971 1.745848,2.102951 1.745848,2.102951 0,0 -1.626812,-0.416624 -2.42038,-1.230027 -0.793564,-0.813406 -2.817161,-3.590888 -3.332977,-6.209659 -0.515818,-2.618769 -0.714211,-4.245579 -0.694372,-4.642364 0.01984,-0.396782 0,-1.011795 0,-1.011795 l -3.789281,-0.03968 0.0992,-1.745845 3.233782,0.376944 z"
       id="path5" /><path
       style="fill:#000000;stroke-width:0.264583"
       d="m 63.313719,56.104522 -0.169627,-2.374794 2.544421,-0.127222 -0.08481,-3.180527 3.307752,-0.08481 0.212034,3.0109 1.696281,-0.636106 -0.296849,-4.113482 11.958788,-2.756459 0.254442,1.399432 c 0,0 -4.834404,1.144989 -4.961626,1.484246 -0.127219,0.339257 -0.636106,2.120352 -0.254442,2.247575 0.381664,0.127219 1.01777,0.212034 1.865911,-0.212037 0.84814,-0.424069 2.289979,-1.229802 2.289979,-1.229802 l 0.296849,2.289979 -4.325516,0.763326 -0.127223,4.113485 c 0,0 0.593699,1.229804 1.441839,1.272211 0.848143,0.04241 2.459609,0.04241 3.986263,-0.424071 1.526654,-0.466476 2.502016,-0.763326 2.714051,-0.339257 0.212037,0.424072 0.04241,0.678514 -0.508884,0.890548 -0.551291,0.212037 -1.781095,0.678513 -2.88368,0.84814 -1.102583,0.16963 -3.392562,0.29685 -4.707181,-0.127219 -1.31462,-0.424072 -1.187397,-0.254442 -1.696281,-1.272212 -0.508886,-1.01777 0.381661,-6.785128 -0.08482,-7.590861 -0.466479,-0.805733 -1.314619,-0.593699 -1.314619,-0.593699 0,0 -0.636106,0.127222 -0.932955,0.551291 -0.29685,0.424072 -0.212035,1.950725 -0.212035,1.950725 L 72.34642,64.840373 c 0,0 -0.04241,0.381664 -0.424069,0 -0.381664,-0.381664 -0.508887,-3.519784 -0.508887,-3.519784 l -0.593698,-6.615501 -1.569061,-0.04241 c 0,0 -0.805733,6.742718 -1.060175,7.378824 -0.254442,0.636106 -1.14499,1.187397 -1.357027,1.01777 -0.212034,-0.169629 -0.381661,-5.428101 -0.381661,-5.428101 l -0.08482,-2.289982 z"
       id="path6" /><path
       style="fill:#000000;stroke-width:0.264583"
       d="m 82.287421,64.274898 c 0,0 4.989079,-3.174868 5.377839,-6.349738 0.38876,-3.174868 0,-3.693213 -1.684626,-5.377839 -1.684623,-1.684623 -2.915695,-4.859494 -2.526935,-5.896184 0.38876,-1.036693 1.814211,-2.721316 4.989079,-4.017182 3.17487,-1.295866 5.313047,-1.684626 5.313047,-1.684626 l -0.194381,1.619832 c 0,0 -5.766599,1.101484 -6.544117,2.78611 -0.777518,1.684624 -0.842312,3.174868 0.38876,4.7947 1.231072,1.619832 2.850902,1.943799 3.628422,4.081976 0.777518,2.138174 -0.06479,3.369246 -1.360659,5.118666 -1.295863,1.749417 -4.470734,4.146767 -5.831391,4.859493 -1.360659,0.712724 -1.943798,0.583139 -1.943798,0.583139 z"
       id="path7" /><path
       style="fill:#0000;stroke-width:0.264583"
       d="m 89.572665,44.625617 c 0,0 7.875108,-1.392878 12.053735,-1.23216 4.17863,0.160716 9.80371,0.750009 12.96447,1.71431 3.16076,0.964298 5.1965,1.928598 5.1965,1.928598 0,0 0.48215,0.428577 0.375,-0.428577 -0.10714,-0.857155 -1.17859,-1.66074 -2.57146,-2.517894 -1.39288,-0.857155 -3.42862,-0.750009 -4.87507,-1.392876 -1.44645,-0.642866 -0.10714,-1.660736 -0.10714,-1.660736 0,0 1.39288,0 2.41075,0.375004 1.01787,0.375005 5.25007,2.089314 5.89293,3.267903 0.64287,1.178587 1.01787,1.392876 1.01787,1.76788 0,0.375007 -0.10714,1.017873 -0.10714,1.017873 0,0 2.78575,0.750009 4.17863,1.071441 1.39288,0.321434 4.60721,1.017873 5.41079,0.964301 0.80358,-0.05357 0.21429,1.446448 0.21429,1.446448 0,0 -2.8929,0 -3.75005,0.375004 -0.85716,0.375007 -3.53577,1.607166 -3.42862,3.642908 0.10714,2.035744 2.03574,4.500062 4.01791,5.785794 1.98217,1.285732 3.58933,1.875026 3.58933,1.875026 0,0 0.32144,0.428577 -0.69643,0.48215 -1.01787,0.05357 -5.7858,-2.142887 -7.01796,-3.642908 -1.23216,-1.500021 -2.83932,-5.250071 -1.28573,-7.17867 1.55359,-1.928598 2.25003,-2.250032 2.25003,-2.250032 0,0 -2.25003,-1.178587 -3.2679,-1.500021 -1.01787,-0.321432 -1.55359,1.767882 -1.55359,1.767882 l -2.83933,1.285733 c 0,0 2.25003,0.910727 2.78576,1.660736 0.53572,0.750012 0.75,4.285774 0.69643,4.821497 -0.0536,0.53572 -0.42858,5.678649 -0.91072,6.107226 -0.48215,0.428577 -0.91073,0.696439 -0.91073,0.696439 0,0 -0.37501,-2.19646 -0.10715,-3.053614 0.26787,-0.857155 1.23217,-5.785795 0.48215,-6.750093 -0.75001,-0.9643 -1.71431,-2.089314 -2.41074,-2.250032 -0.69644,-0.160716 -0.48215,-1.660737 -0.48215,-1.660737 l 2.67861,-1.821452 c 0,0 1.17858,-0.964301 -0.21429,-1.446448 -1.39288,-0.48215 -3.32148,-1.017874 -3.53577,-0.964301 -0.21428,0.05357 -0.53572,0.321435 -0.375,1.23216 0.16072,0.910727 0.26786,2.946468 0.26786,2.946468 h 1.12502 l 0.0536,1.553594 -1.01788,0.214289 c 0,0 -0.53572,4.339346 -0.0536,5.196501 0.48215,0.857155 -0.16071,0.750009 -0.16071,0.750009 0,0 -0.75001,-0.214289 -1.23216,-0.803582 -0.48215,-0.589293 -0.5893,-3.21433 -0.48215,-5.303644 0.10714,-2.089314 0.42857,-4.071485 -0.53572,-5.571506 -0.9643,-1.500021 -0.5893,-1.071443 -1.76789,-1.125016 -1.17858,-0.05357 0.37501,2.089316 0.5893,2.517891 0.21429,0.428578 0.26786,6.214372 0.0536,6.482234 -0.21429,0.267861 -1.50002,2.142886 -1.50002,2.142886 l -0.0536,-5.678648 c 0,0 0.16071,-0.857155 -0.9643,-1.500021 -1.12502,-0.642866 -1.98217,-0.428578 -1.98217,-0.428578 l -0.0536,-1.285732 1.82145,0.214289 c 0,0 0.80358,0.321432 0.32143,-0.642866 -0.48215,-0.964301 -2.41074,-2.517891 -3.05361,-2.625037 -0.64287,-0.107143 -1.12502,0.375004 -1.12502,0.375004 l -0.10714,2.089317 c 0,0 -0.16072,0.375005 0.375,0.428577 0.53573,0.05357 1.66074,0.160716 1.66074,0.160716 l 0.10715,1.285732 h -1.9286 c 0,0 -0.37501,4.767922 -0.53572,5.142929 -0.16072,0.375004 -1.71431,2.571464 -1.71431,2.571464 l -0.32144,-0.214289 -0.10714,-1.607166 c 0,0 1.23217,-3.267906 0.42858,-5.571506 -0.36352,-1.042095 -2.20708,-1.185198 -4.117218,-1.029431 -0.240015,0.01957 -0.944138,0.08718 -0.944138,0.08718 l 0.0165,-1.023999 4.619666,0.04431 -0.10666,-3.422951 c 0,0 -2.63727,-0.32377 -4.087051,-0.234767 -1.276655,0.07838 -3.544863,0.292146 -3.544863,0.292146 l -0.398263,3.383856 3.511827,-0.07337 -0.0041,1.01686 c 0,0 -0.70894,0.101634 -1.151827,0.184191 -1.175008,0.219028 -2.633292,0.561701 -2.633292,0.561701 0,0 -0.48215,1.767883 0,2.839326 0.482148,1.071444 1.982169,2.464319 1.982169,2.464319 0,0 3.267903,0.696439 4.33936,0.696439 1.07143,0 -0.48215,0.642866 -0.48215,0.642866 0,0 0.10713,-0.05357 -0.696453,0.05357 -0.803582,0.107143 -3.482189,0.428578 -5.142926,-0.696438 -1.660739,-1.125017 -2.571464,-2.892896 -2.625037,-4.178628 -0.05357,-1.285733 0,-0.910728 0,-0.910728 l -1.660736,-0.214289 -0.107146,-1.660736 1.767882,-0.214289 0.05357,-3.053614 c 0,0 -2.946471,0.428577 -3.267903,0.803581 -0.321434,0.375008 -0.214289,-0.964297 -0.214289,-0.964297 z"
       id="path8"
       sodipodi:nodetypes="csscssscssscsscssscssscsccscscsssccsssccccccssssssccscccssccscccscccssccccsccccscscscssscccccscc" /><path
       style="fill:#000000;stroke-width:0.264583"
       d="m 132.7354,51.036622 v -1.64764 l 7.07279,0.08037 v 1.728012 l -2.37099,0.04019 0.20093,2.290623 5.98776,-0.281305 c 0,0 -0.56261,-4.099005 -2.21025,-5.626084 -1.64763,-1.52708 3.77752,-0.44205 3.77752,-0.44205 0,0 2.00932,6.630741 0.92428,13.502602 -1.08503,6.871859 -3.85788,5.143847 -3.85788,5.143847 l 2.00931,-4.179377 0.0402,-7.032604 -6.47,0.76354 c 0,0 -0.60279,5.304594 -1.60745,6.510184 -1.00466,1.205587 -1.88876,1.285963 -1.88876,1.285963 0,0 -0.24111,0.200929 -0.36167,-0.482238 -0.12056,-0.683167 0.92428,-1.08503 1.24577,-2.772854 0.32149,-1.687828 0.64298,-2.612113 0.68317,-3.415837 0.0402,-0.803728 -0.0402,-1.165405 -0.0402,-1.165405 l -3.33546,0.24112 0.12056,-1.808385 2.73267,-0.04019 c 0,0 0.20093,-1.446708 -0.12056,-1.96913 -0.32149,-0.522423 -0.20093,-0.401863 -0.20093,-0.401863 z"
       id="path9" /></g></svg>
